{
  "accessors": [
    {
      "bufferView": 2,
      "componentType": 5126,
      "count": 3831,
      "max": [
        -12.02188491821289,
        20.888629913330078,
        4.254165172576904
      ],
      "min": [
        -21.90140151977539,
        -12.786376953125,
        -3.7284457683563232
      ],
      "type": "VEC3"
    },
    {
      "bufferView": 2,
      "byteOffset": 45972,
      "componentType": 5126,
      "count": 3831,
      "max": [
        1.0,
        1.0,
        1.0
      ],
      "min": [
        -1.0,
        -1.0,
        -0.9998835921287537
      ],
      "type": "VEC3"
    },
    {
      "bufferView": 3,
      "componentType": 5126,
      "count": 3831,
      "max": [
        1.0,
        1.0,
        1.0,
        1.0
      ],
      "min": [
        -0.9999999403953552,
        -1.0,
        -0.9999964237213135,
        -1.0
      ],
      "type": "VEC4"
    },
    {
      "bufferView": 1,
      "componentType": 5126,
      "count": 3831,
      "max": [
        1.9294590950012207,
        0.991580069065094
      ],
      "min": [
        0.0014857053756713867,
        0.0035303831100463867
      ],
      "type": "VEC2"
    },
    {
      "bufferView": 0,
      "componentType": 5125,
      "count": 15804,
      "type": "SCALAR"
    },
    {
      "bufferView": 2,
      "byteOffset": 91944,
      "componentType": 5126,
      "count": 6230,
      "max": [
        4.124220371246338,
        10.499353408813477,
        4.124220371246338
      ],
      "min": [
        -4.124220371246338,
        -4.165680408477783,
        -4.124220371246338
      ],
      "type": "VEC3"
    },
    {
      "bufferView": 2,
      "byteOffset": 166704,
      "componentType": 5126,
      "count": 6230,
      "max": [
        1.0,
        1.0,
        1.0
      ],
      "min": [
        -1.0,
        -1.0,
        -1.0
      ],
      "type": "VEC3"
    },
    {
      "bufferView": 3,
      "byteOffset": 61296,
      "componentType": 5126,
      "count": 6230,
      "max": [
        1.0,
        0.9923121929168701,
        1.0,
        1.0
      ],
      "min": [
        -1.0,
        -0.9983488917350769,
        -1.0,
        -1.0
      ],
      "type": "VEC4"
    },
    {
      "bufferView": 1,
      "byteOffset": 30648,
      "componentType": 5126,
      "count": 6230,
      "max": [
        0.9979476928710938,
        0.9931306838989258
      ],
      "min": [
        0.0,
        0.0
      ],
      "type": "VEC2"
    },
    {
      "bufferView": 0,
      "byteOffset": 63216,
      "componentType": 5125,
      "count": 23940,
      "type": "SCALAR"
    },
    {
      "bufferView": 2,
      "byteOffset": 241464,
      "componentType": 5126,
      "count": 3792,
      "max": [
        20.508338928222656,
        8.051084518432617,
        2.578324556350708
      ],
      "min": [
        15.076339721679688,
        -4.223368167877197,
        -2.578328847885132
      ],
      "type": "VEC3"
    },
    {
      "bufferView": 2,
      "byteOffset": 286968,
      "componentType": 5126,
      "count": 3792,
      "max": [
        1.0,
        1.0,
        1.0
      ],
      "min": [
        -1.0,
        -1.0,
        -1.0
      ],
      "type": "VEC3"
    },
    {
      "bufferView": 3,
      "byteOffset": 160976,
      "componentType": 5126,
      "count": 3792,
      "max": [
        1.0,
        1.0,
        1.0,
        1.0
      ],
      "min": [
        -1.0,
        -1.0,
        -1.0,
        1.0
      ],
      "type": "VEC4"
    },
    {
      "bufferView": 1,
      "byteOffset": 80488,
      "componentType": 5126,
      "count": 3792,
      "max": [
        0.9985050559043884,
        0.9030142426490784
      ],
      "min": [
        -3.0441016861004755e-05,
        0.0029142750427126884
      ],
      "type": "VEC2"
    },
    {
      "bufferView": 0,
      "byteOffset": 158976,
      "componentType": 5125,
      "count": 17166,
      "type": "SCALAR"
    }
  ],
  "asset": {
    "extras": {
      "author": "thomasvansteelandt (https://sketchfab.com/thomasvansteelandt)",
      "license": "CC-BY-4.0 (http://creativecommons.org/licenses/by/4.0/)",
      "source": "https://sketchfab.com/3d-models/ww1-grenades-88f06fc7905b4be0a980a417919cb631",
      "title": "WW1 Grenades"
    },
    "generator": "Sketchfab-15.36.0",
    "version": "2.0"
  },
  "bufferViews": [
    {
      "buffer": 0,
      "byteLength": 227640,
      "name": "floatBufferViews",
      "target": 34963
    },
    {
      "buffer": 0,
      "byteLength": 110824,
      "byteOffset": 227640,
      "byteStride": 8,
      "name": "floatBufferViews",
      "target": 34962
    },
    {
      "buffer": 0,
      "byteLength": 332472,
      "byteOffset": 338464,
      "byteStride": 12,
      "name": "floatBufferViews",
      "target": 34962
    },
    {
      "buffer": 0,
      "byteLength": 221648,
      "byteOffset": 670936,
      "byteStride": 16,
      "name": "floatBufferViews",
      "target": 34962
    }
  ],
  "buffers": [
    {
      "byteLength": 892584,
      "uri": "scene.bin"
    }
  ],
  "images": [
    {
      "uri": "textures/Hand_baseColor.png"
    },
    {
      "uri": "textures/Hand_metallicRoughness.png"
    },
    {
      "uri": "textures/Hand_normal.png"
    },
    {
      "uri": "textures/Kugel_baseColor.png"
    },
    {
      "uri": "textures/Kugel_metallicRoughness.png"
    },
    {
      "uri": "textures/Kugel_normal.png"
    },
    {
      "uri": "textures/material_baseColor.png"
    },
    {
      "uri": "textures/material_metallicRoughness.png"
    },
    {
      "uri": "textures/material_normal.png"
    }
  ],
  "materials": [
    {
      "doubleSided": true,
      "name": "Hand",
      "normalTexture": {
        "index": 2
      },
      "occlusionTexture": {
        "index": 1
      },
      "pbrMetallicRoughness": {
        "baseColorTexture": {
          "index": 0
        },
        "metallicRoughnessTexture": {
          "index": 1
        }
      }
    },
    {
      "doubleSided": true,
      "name": "Kugel",
      "normalTexture": {
        "index": 5
      },
      "occlusionTexture": {
        "index": 4
      },
      "pbrMetallicRoughness": {
        "baseColorTexture": {
          "index": 3
        },
        "metallicRoughnessTexture": {
          "index": 4
        }
      }
    },
    {
      "doubleSided": true,
      "name": "material",
      "normalTexture": {
        "index": 8
      },
      "occlusionTexture": {
        "index": 7
      },
      "pbrMetallicRoughness": {
        "baseColorTexture": {
          "index": 6
        },
        "metallicRoughnessTexture": {
          "index": 7
        }
      }
    }
  ],
  "meshes": [
    {
      "name": "polySurface91_Hand_0",
      "primitives": [
        {
          "attributes": {
            "NORMAL": 1,
            "POSITION": 0,
            "TANGENT": 2,
            "TEXCOORD_0": 3
          },
          "indices": 4,
          "material": 0,
          "mode": 4
        }
      ]
    },
    {
      "name": "polySurface92_Kugel_0",
      "primitives": [
        {
          "attributes": {
            "NORMAL": 6,
            "POSITION": 5,
            "TANGENT": 7,
            "TEXCOORD_0": 8
          },
          "indices": 9,
          "material": 1,
          "mode": 4
        }
      ]
    },
    {
      "name": "polySurface93_MK2_0",
      "primitives": [
        {
          "attributes": {
            "NORMAL": 11,
            "POSITION": 10,
            "TANGENT": 12,
            "TEXCOORD_0": 13
          },
          "indices": 14,
          "material": 2,
          "mode": 4
        }
      ]
    }
  ],
  "nodes": [
    {
      "children": [
        1
      ],
      "matrix": [
        1.0,
        0.0,
        0.0,
        0.0,
        0.0,
        2.220446049250313e-16,
        -1.0,
        0.0,
        0.0,
        1.0,
        2.220446049250313e-16,
        0.0,
        0.0,
        0.0,
        0.0,
        1.0
      ],
      "name": "Sketchfab_model"
    },
    {
      "children": [
        2
      ],
      "matrix": [
        0.009999999776482582,
        0.0,
        0.0,
        0.0,
        0.0,
        0.0,
        0.009999999776482582,
        0.0,
        0.0,
        -0.009999999776482582,
        0.0,
        0.0,
        0.0,
        0.0,
        0.0,
        1.0
      ],
      "name": "a8e90a49d87248b98d18486f4028ee3b.fbx"
    },
    {
      "children": [
        3,
        5,
        7
      ],
      "name": "RootNode"
    },
    {
      "children": [
        4
      ],
      "matrix": [
        0.10116684861406278,
        0.9948694732182205,
        0.0,
        0.0,
        -0.9948694732182205,
        0.10116684861406278,
        0.0,
        0.0,
        0.0,
        0.0,
        1.0,
        0.0,
        -18.528682708740234,
        20.82402801513672,
        0.0,
        1.0
      ],
      "name": "polySurface91"
    },
    {
      "mesh": 0,
      "name": "polySurface91_Hand_0"
    },
    {
      "children": [
        6
      ],
      "matrix": [
        1.0,
        0.0,
        0.0,
        0.0,
        0.0,
        1.0,
        0.0,
        0.0,
        0.0,
        0.0,
        1.0,
        0.0,
        -19.140392303466797,
        4.200466156005859,
        15.093306541442871,
        1.0
      ],
      "name": "polySurface92"
    },
    {
      "mesh": 1,
      "name": "polySurface92_Kugel_0"
    },
    {
      "children": [
        8
      ],
      "matrix": [
        -0.9793270137464447,
        -1.249000902703301e-16,
        0.20228346483702359,
        0.0,
        0.20225454831882744,
        -0.0169080017506249,
        0.979187018480713,
        0.0,
        0.0034202091775867166,
        0.9998570495209809,
        0.01655846286285889,
        0.0,
        -11.322076797485352,
        2.5083580017089844,
        7.146183490753174,
        1.0
      ],
      "name": "polySurface93"
    },
    {
      "mesh": 2,
      "name": "polySurface93_MK2_0"
    }
  ],
  "samplers": [
    {
      "magFilter": 9729,
      "minFilter": 9987,
      "wrapS": 10497,
      "wrapT": 10497
    }
  ],
  "scene": 0,
  "scenes": [
    {
      "name": "Sketchfab_Scene",
      "nodes": [
        0
      ]
    }
  ],
  "textures": [
    {
      "sampler": 0,
      "source": 0
    },
    {
      "sampler": 0,
      "source": 1
    },
    {
      "sampler": 0,
      "source": 2
    },
    {
      "sampler": 0,
      "source": 3
    },
    {
      "sampler": 0,
      "source": 4
    },
    {
      "sampler": 0,
      "source": 5
    },
    {
      "sampler": 0,
      "source": 6
    },
    {
      "sampler": 0,
      "source": 7
    },
    {
      "sampler": 0,
      "source": 8
    }
  ]
}
